<svg id="Capa_1" enable-background="new 0 0 512 512" height="512" viewBox="0 0 512 512" width="512" xmlns="http://www.w3.org/2000/svg"><path d="m256 127.934c-138.627 0-251.532 110.13-255.996 247.672-.15 4.633 3.677 8.461 8.313 8.461h24.599s99.878-206.4 223.083-206.4 223.083 206.4 223.083 206.4h24.599c4.636 0 8.463-3.828 8.313-8.461-4.462-137.543-117.367-247.672-255.994-247.672z" fill="#ff8086"/><path d="m256 160.983c-123.206 0-223.083 99.878-223.083 223.083h33.049s85.081-173.733 190.034-173.733c104.954 0 190.034 173.733 190.034 173.733h33.049c0-123.205-99.878-223.083-223.083-223.083z" fill="#ffe07d"/><path d="m256 194.032c-104.953 0-190.034 85.081-190.034 190.034h33.049s70.284-140.566 156.985-140.566 156.985 140.566 156.985 140.566h33.049c0-104.953-85.08-190.034-190.034-190.034z" fill="#aedb81"/><path d="m256 227.082c-86.7 0-156.985 70.284-156.985 156.985h33.049s55.488-107.411 123.935-107.411c68.448 0 123.935 107.411 123.935 107.411h33.049c.002-86.701-70.283-156.985-156.983-156.985z" fill="#8bb3ea"/><path d="m256 260.131c-68.447 0-123.935 55.487-123.935 123.935h16.525l9.744-7.438c3.784-46.716 49.976-90.962 97.667-90.962s93.883 44.246 97.667 90.962l9.744 7.438h16.525c-.002-68.447-55.489-123.935-123.937-123.935z" fill="#c3aff0"/><path d="m256 276.656c-59.321 0-107.411 48.089-107.411 107.411h8.637c4.24 0 7.846-3.211 8.188-7.438 3.784-46.716 42.895-83.448 90.586-83.448s86.802 36.732 90.586 83.448c.342 4.226 3.948 7.438 8.188 7.438h8.637c0-59.322-48.09-107.411-107.411-107.411z" fill="#ac8eeb"/></svg>